<svg xmlns="http://www.w3.org/2000/svg" xmlns:xlink="http://www.w3.org/1999/xlink" width="1920" zoomAndPan="magnify" viewBox="0 0 1440 749.999995" height="1000" preserveAspectRatio="xMidYMid meet" version="1.0"><defs><clipPath id="62d4809479"><path d="M -367.375 250.421875 L 984.199219 -699.933594 L 1464.335938 -17.089844 L 112.761719 933.265625 Z M -367.375 250.421875 " clip-rule="nonzero"/></clipPath><clipPath id="08fd27f580"><path d="M 0 0 L 186 0 L 186 750 L 0 750 Z M 0 0 " clip-rule="nonzero"/></clipPath><clipPath id="e200f7c60e"><path d="M -7.421875 -32.621094 L 185.742188 791.03125 L 3.921875 833.671875 L -189.238281 10.019531 Z M -7.421875 -32.621094 " clip-rule="nonzero"/></clipPath><clipPath id="f44066adc8"><path d="M 0 472 L 228 472 L 228 684 L 0 684 Z M 0 472 " clip-rule="nonzero"/></clipPath><clipPath id="762a70311c"><path d="M -54.515625 472.539062 L 227.171875 635.640625 L 199.363281 683.667969 L -82.324219 520.566406 Z M -54.515625 472.539062 " clip-rule="nonzero"/></clipPath></defs><rect x="-144" width="1728" fill="#ffffff" y="-74.999999" height="899.999994" fill-opacity="1"/><rect x="-144" width="1728" fill="#ffffff" y="-74.999999" height="899.999994" fill-opacity="1"/><rect x="-144" width="1728" fill="#ffffff" y="-74.999999" height="899.999994" fill-opacity="1"/><g clip-path="url(#62d4809479)"><path fill="#f8fafc" d="M -367.375 250.421875 L 984.199219 -699.933594 L 1464.335938 -17.089844 L 112.761719 933.265625 L -367.375 250.421875 " fill-opacity="1" fill-rule="nonzero"/></g><g clip-path="url(#08fd27f580)"><g clip-path="url(#e200f7c60e)"><path fill="#73bea4" d="M -7.417969 -32.605469 L 185.738281 791.015625 L 3.921875 833.65625 L -189.234375 10.035156 L -7.417969 -32.605469 " fill-opacity="1" fill-rule="nonzero"/></g></g><g clip-path="url(#f44066adc8)"><g clip-path="url(#762a70311c)"><path fill="#f8fafc" d="M -54.503906 472.542969 L 227.160156 635.632812 L 199.347656 683.660156 L -82.3125 520.574219 L -54.503906 472.542969 " fill-opacity="1" fill-rule="nonzero"/></g></g></svg>